<mxfile host="app.diagrams.net" modified="2024-06-29T04:51:03.876Z" agent="Mozilla/5.0 (Macintosh; Intel Mac OS X 10_15_7) AppleWebKit/537.36 (KHTML, like Gecko) Chrome/126.0.0.0 Safari/537.36" etag="X9WSED8Xk-glNY-vr11b" version="24.6.4" type="github">
  <diagram name="第 1 页" id="HsyytIjHzuRLYOXNuE68">
    <mxGraphModel dx="1098" dy="570" grid="1" gridSize="10" guides="1" tooltips="1" connect="1" arrows="1" fold="1" page="1" pageScale="1" pageWidth="827" pageHeight="1169" math="0" shadow="0">
      <root>
        <mxCell id="0" />
        <mxCell id="1" parent="0" />
        <mxCell id="9iSjs7LoO0IuLMqKa7v6-27" value="" style="rounded=0;whiteSpace=wrap;html=1;" vertex="1" parent="1">
          <mxGeometry x="30" y="180" width="930" height="540" as="geometry" />
        </mxCell>
        <mxCell id="9iSjs7LoO0IuLMqKa7v6-1" value="&lt;p class=&quot;MsoNormal&quot; style=&quot;margin: 0pt 0pt 0.0001pt; text-align: justify; font-family: Calibri; font-size: 22px;&quot;&gt;&lt;span style=&quot;font-family: 宋体; font-size: 22px;&quot;&gt;异构智能的边缘计算应用加速方法&lt;/span&gt;&lt;/p&gt;" style="rounded=1;whiteSpace=wrap;html=1;fontSize=22;fillColor=#dae8fc;strokeColor=#6c8ebf;" vertex="1" parent="1">
          <mxGeometry x="110" y="240" width="740" height="60" as="geometry" />
        </mxCell>
        <mxCell id="9iSjs7LoO0IuLMqKa7v6-2" value="动态资源调度" style="rounded=1;whiteSpace=wrap;html=1;fontSize=16;fillColor=#b0e3e6;strokeColor=#0e8088;" vertex="1" parent="1">
          <mxGeometry x="720" y="330" width="130" height="60" as="geometry" />
        </mxCell>
        <mxCell id="9iSjs7LoO0IuLMqKa7v6-3" value="AI模型优化" style="rounded=1;whiteSpace=wrap;html=1;fontSize=16;fillColor=#e1d5e7;strokeColor=#9673a6;" vertex="1" parent="1">
          <mxGeometry x="260" y="330" width="130" height="60" as="geometry" />
        </mxCell>
        <mxCell id="9iSjs7LoO0IuLMqKa7v6-4" value="分布式计算和协同推理" style="rounded=1;whiteSpace=wrap;html=1;fontSize=16;fillColor=#fad7ac;strokeColor=#b46504;" vertex="1" parent="1">
          <mxGeometry x="415" y="330" width="125" height="60" as="geometry" />
        </mxCell>
        <mxCell id="9iSjs7LoO0IuLMqKa7v6-5" value="异构计算架构" style="rounded=1;whiteSpace=wrap;html=1;fontSize=16;fillColor=#d5e8d4;strokeColor=#82b366;" vertex="1" parent="1">
          <mxGeometry x="110" y="330" width="130" height="60" as="geometry" />
        </mxCell>
        <mxCell id="9iSjs7LoO0IuLMqKa7v6-6" value="智能数据" style="rounded=1;whiteSpace=wrap;html=1;fontSize=16;fillColor=#fad9d5;strokeColor=#ae4132;" vertex="1" parent="1">
          <mxGeometry x="570" y="330" width="130" height="60" as="geometry" />
        </mxCell>
        <mxCell id="9iSjs7LoO0IuLMqKa7v6-7" value="" style="rounded=1;whiteSpace=wrap;html=1;fillColor=#d5e8d4;strokeColor=#82b366;" vertex="1" parent="1">
          <mxGeometry x="110" y="410" width="130" height="230" as="geometry" />
        </mxCell>
        <mxCell id="9iSjs7LoO0IuLMqKa7v6-8" value="" style="rounded=1;whiteSpace=wrap;html=1;fillColor=#e1d5e7;strokeColor=#9673a6;" vertex="1" parent="1">
          <mxGeometry x="260" y="410" width="130" height="230" as="geometry" />
        </mxCell>
        <mxCell id="9iSjs7LoO0IuLMqKa7v6-9" value="" style="rounded=1;whiteSpace=wrap;html=1;fillColor=#fad7ac;strokeColor=#b46504;" vertex="1" parent="1">
          <mxGeometry x="415" y="410" width="130" height="230" as="geometry" />
        </mxCell>
        <mxCell id="9iSjs7LoO0IuLMqKa7v6-10" value="" style="rounded=1;whiteSpace=wrap;html=1;fillColor=#fad9d5;strokeColor=#ae4132;" vertex="1" parent="1">
          <mxGeometry x="577" y="410" width="130" height="230" as="geometry" />
        </mxCell>
        <mxCell id="9iSjs7LoO0IuLMqKa7v6-11" value="" style="rounded=1;whiteSpace=wrap;html=1;fillColor=#b0e3e6;strokeColor=#0e8088;" vertex="1" parent="1">
          <mxGeometry x="720" y="410" width="130" height="230" as="geometry" />
        </mxCell>
        <mxCell id="9iSjs7LoO0IuLMqKa7v6-12" value="&lt;p style=&quot;margin: 0pt 0pt 0.0001pt; text-align: justify; font-family: Calibri; font-size: 10.5pt;&quot; class=&quot;MsoNormal&quot;&gt;&lt;b&gt;&lt;span style=&quot;font-size: 10.5pt;&quot;&gt;GPU&lt;font face=&quot;宋体&quot;&gt;加速&lt;/font&gt;&lt;/span&gt;&lt;/b&gt;&lt;/p&gt;" style="rounded=1;whiteSpace=wrap;html=1;" vertex="1" parent="1">
          <mxGeometry x="100" y="100" width="90" height="40" as="geometry" />
        </mxCell>
        <mxCell id="9iSjs7LoO0IuLMqKa7v6-13" value="&lt;p style=&quot;margin: 0pt 0pt 0.0001pt; text-align: justify; font-family: Calibri; font-size: 10.5pt;&quot; class=&quot;MsoNormal&quot;&gt;&lt;b&gt;&lt;span style=&quot;font-size: 10.5pt;&quot;&gt;GPU&lt;font face=&quot;宋体&quot;&gt;加速&lt;/font&gt;&lt;/span&gt;&lt;/b&gt;&lt;/p&gt;" style="rounded=1;whiteSpace=wrap;html=1;" vertex="1" parent="1">
          <mxGeometry x="110" y="110" width="90" height="40" as="geometry" />
        </mxCell>
        <mxCell id="9iSjs7LoO0IuLMqKa7v6-14" value="&lt;p class=&quot;MsoNormal&quot; style=&quot;margin: 0pt 0pt 0.0001pt; text-align: justify; font-family: Calibri; font-size: 11px;&quot;&gt;&lt;b style=&quot;font-size: 11px;&quot;&gt;&lt;span style=&quot;font-size: 11px;&quot;&gt;&lt;font face=&quot;宋体&quot; style=&quot;font-size: 11px;&quot;&gt;资源调度&lt;/font&gt;&lt;/span&gt;&lt;/b&gt;&lt;/p&gt;" style="rounded=1;whiteSpace=wrap;html=1;fontSize=11;fillColor=#dae8fc;gradientColor=#7ea6e0;strokeColor=#6c8ebf;" vertex="1" parent="1">
          <mxGeometry x="740" y="560" width="90" height="40" as="geometry" />
        </mxCell>
        <mxCell id="9iSjs7LoO0IuLMqKa7v6-15" value="&lt;p class=&quot;MsoNormal&quot; style=&quot;margin: 0pt 0pt 0.0001pt; text-align: justify; font-family: Calibri; font-size: 11px;&quot;&gt;&lt;b style=&quot;font-size: 11px;&quot;&gt;&lt;span style=&quot;font-size: 11px;&quot;&gt;&lt;font face=&quot;宋体&quot; style=&quot;font-size: 11px;&quot;&gt;模型剪枝&lt;/font&gt;&lt;/span&gt;&lt;/b&gt;&lt;/p&gt;" style="rounded=1;whiteSpace=wrap;html=1;fontSize=11;fillColor=#fff2cc;gradientColor=#ffd966;strokeColor=#d6b656;" vertex="1" parent="1">
          <mxGeometry x="280" y="450" width="90" height="40" as="geometry" />
        </mxCell>
        <mxCell id="9iSjs7LoO0IuLMqKa7v6-16" value="&lt;p class=&quot;MsoNormal&quot; style=&quot;margin: 0pt 0pt 0.0001pt; text-align: justify; font-family: Calibri; font-size: 11px;&quot;&gt;&lt;b style=&quot;font-size: 11px;&quot;&gt;ASIC&lt;/b&gt;&lt;/p&gt;" style="rounded=1;whiteSpace=wrap;html=1;fontSize=11;fillColor=#f8cecc;gradientColor=#ea6b66;strokeColor=#b85450;" vertex="1" parent="1">
          <mxGeometry x="130" y="565" width="90" height="40" as="geometry" />
        </mxCell>
        <mxCell id="9iSjs7LoO0IuLMqKa7v6-17" value="&lt;p class=&quot;MsoNormal&quot; style=&quot;margin: 0pt 0pt 0.0001pt; text-align: justify; font-family: Calibri; font-size: 11px;&quot;&gt;&lt;b style=&quot;font-size: 11px;&quot;&gt;&lt;span style=&quot;font-size: 11px;&quot;&gt;FPGA&lt;font face=&quot;宋体&quot; style=&quot;font-size: 11px;&quot;&gt;加速&lt;/font&gt;&lt;/span&gt;&lt;/b&gt;&lt;/p&gt;" style="rounded=1;whiteSpace=wrap;html=1;fontSize=11;fillColor=#f8cecc;gradientColor=#ea6b66;strokeColor=#b85450;" vertex="1" parent="1">
          <mxGeometry x="130" y="505" width="90" height="40" as="geometry" />
        </mxCell>
        <mxCell id="9iSjs7LoO0IuLMqKa7v6-18" value="&lt;p class=&quot;MsoNormal&quot; style=&quot;margin: 0pt 0pt 0.0001pt; text-align: justify; font-family: Calibri; font-size: 11px;&quot;&gt;&lt;b style=&quot;font-size: 11px;&quot;&gt;&lt;span style=&quot;font-size: 11px;&quot;&gt;GPU&lt;font face=&quot;宋体&quot; style=&quot;font-size: 11px;&quot;&gt;加速&lt;/font&gt;&lt;/span&gt;&lt;/b&gt;&lt;/p&gt;" style="rounded=1;whiteSpace=wrap;html=1;fontSize=11;fillColor=#f8cecc;gradientColor=#ea6b66;strokeColor=#b85450;" vertex="1" parent="1">
          <mxGeometry x="130" y="440" width="90" height="40" as="geometry" />
        </mxCell>
        <mxCell id="9iSjs7LoO0IuLMqKa7v6-19" value="&lt;p class=&quot;MsoNormal&quot; style=&quot;margin: 0pt 0pt 0.0001pt; text-align: justify; font-family: Calibri; font-size: 11px;&quot;&gt;&lt;span style=&quot;font-size: 11px;&quot;&gt;&lt;font face=&quot;宋体&quot; style=&quot;font-size: 11px;&quot;&gt;&lt;b style=&quot;font-size: 11px;&quot;&gt;数据管理&lt;/b&gt;&lt;/font&gt;&lt;/span&gt;&lt;/p&gt;" style="rounded=1;whiteSpace=wrap;html=1;fontSize=11;fillColor=#f5f5f5;gradientColor=#b3b3b3;strokeColor=#666666;" vertex="1" parent="1">
          <mxGeometry x="597" y="560" width="90" height="40" as="geometry" />
        </mxCell>
        <mxCell id="9iSjs7LoO0IuLMqKa7v6-20" value="&lt;p class=&quot;MsoNormal&quot; style=&quot;margin: 0pt 0pt 0.0001pt; text-align: justify; font-family: Calibri; font-size: 11px;&quot;&gt;&lt;b style=&quot;font-size: 11px;&quot;&gt;&lt;span style=&quot;font-size: 11px;&quot;&gt;&lt;font face=&quot;宋体&quot; style=&quot;font-size: 11px;&quot;&gt;边缘缓存&lt;/font&gt;&lt;/span&gt;&lt;/b&gt;&lt;/p&gt;" style="rounded=1;whiteSpace=wrap;html=1;fontSize=11;fillColor=#f5f5f5;gradientColor=#b3b3b3;strokeColor=#666666;" vertex="1" parent="1">
          <mxGeometry x="597" y="450" width="90" height="40" as="geometry" />
        </mxCell>
        <mxCell id="9iSjs7LoO0IuLMqKa7v6-21" value="&lt;p class=&quot;MsoNormal&quot; style=&quot;margin: 0pt 0pt 0.0001pt; text-align: justify; font-family: Calibri; font-size: 11px;&quot;&gt;&lt;b style=&quot;font-size: 11px;&quot;&gt;&lt;span style=&quot;font-size: 11px;&quot;&gt;&lt;font face=&quot;宋体&quot; style=&quot;font-size: 11px;&quot;&gt;协同推理&lt;/font&gt;&lt;/span&gt;&lt;/b&gt;&lt;/p&gt;" style="rounded=1;whiteSpace=wrap;html=1;fontSize=11;fillColor=#ffcd28;gradientColor=#ffa500;strokeColor=#d79b00;" vertex="1" parent="1">
          <mxGeometry x="435" y="560" width="90" height="40" as="geometry" />
        </mxCell>
        <mxCell id="9iSjs7LoO0IuLMqKa7v6-22" value="&lt;p class=&quot;MsoNormal&quot; style=&quot;margin: 0pt 0pt 0.0001pt; text-align: justify; font-family: Calibri; font-size: 11px;&quot;&gt;&lt;b style=&quot;font-size: 11px;&quot;&gt;&lt;span style=&quot;font-size: 11px;&quot;&gt;&lt;font face=&quot;宋体&quot; style=&quot;font-size: 11px;&quot;&gt;分布式计算&lt;/font&gt;&lt;/span&gt;&lt;/b&gt;&lt;/p&gt;" style="rounded=1;whiteSpace=wrap;html=1;fontSize=11;fillColor=#ffcd28;gradientColor=#ffa500;strokeColor=#d79b00;" vertex="1" parent="1">
          <mxGeometry x="435" y="450" width="90" height="40" as="geometry" />
        </mxCell>
        <mxCell id="9iSjs7LoO0IuLMqKa7v6-23" value="&lt;p class=&quot;MsoNormal&quot; style=&quot;margin: 0pt 0pt 0.0001pt; text-align: justify; font-family: Calibri; font-size: 11px;&quot;&gt;&lt;b style=&quot;font-size: 11px;&quot;&gt;&lt;span style=&quot;font-size: 11px;&quot;&gt;&lt;font face=&quot;宋体&quot; style=&quot;font-size: 11px;&quot;&gt;知识蒸馏&lt;/font&gt;&lt;/span&gt;&lt;/b&gt;&lt;/p&gt;" style="rounded=1;whiteSpace=wrap;html=1;fontSize=11;fillColor=#fff2cc;gradientColor=#ffd966;strokeColor=#d6b656;" vertex="1" parent="1">
          <mxGeometry x="280" y="560" width="90" height="40" as="geometry" />
        </mxCell>
        <mxCell id="9iSjs7LoO0IuLMqKa7v6-24" value="&lt;p class=&quot;MsoNormal&quot; style=&quot;margin: 0pt 0pt 0.0001pt; text-align: justify; font-family: Calibri; font-size: 11px;&quot;&gt;&lt;b style=&quot;font-size: 11px;&quot;&gt;&lt;span style=&quot;font-size: 11px;&quot;&gt;&lt;font face=&quot;宋体&quot; style=&quot;font-size: 11px;&quot;&gt;负载均衡&lt;/font&gt;&lt;/span&gt;&lt;/b&gt;&lt;/p&gt;" style="rounded=1;whiteSpace=wrap;html=1;fontSize=11;fillColor=#dae8fc;gradientColor=#7ea6e0;strokeColor=#6c8ebf;" vertex="1" parent="1">
          <mxGeometry x="741.5" y="450" width="90" height="40" as="geometry" />
        </mxCell>
      </root>
    </mxGraphModel>
  </diagram>
</mxfile>
